inDegrees=no
num_controls=7
num_derivatives=13
num_iterations=110
num_multipliers=7
num_parameters=0
num_slacks=7
num_states=26
objective=4.122576
objective_accelerations=0.299813
objective_balance=0.054171
objective_effort=0.314699
objective_height=3.392261
objective_ligament=0.061632
solver_duration=1896.571918
status=Solve_Succeeded
success=true
DataType=double
version=3
OpenSimVersion=4.4-2022-07-23-0e9fedc
endheader
time	/jointset/ground_pelvis/pelvis_tilt/value	/jointset/ground_pelvis/pelvis_tx/value	/jointset/ground_pelvis/pelvis_ty/value	/jointset/hip_l/hip_flexion_l/value	/jointset/hip_l/hip_adduction_l/value	/jointset/hip_l/hip_rotation_l/value	/jointset/back/lumbar_extension/value	/jointset/patellofemoral_l/patellar_flexion_l/value	/jointset/knee_l/knee_flexion_l/value	/jointset/knee_l/knee_adduction_l/value	/jointset/knee_l/knee_rotation_l/value	/jointset/ankle_l/ankle_angle_l/value	/jointset/subtalar_l/subtalar_angle_l/value	/jointset/ground_pelvis/pelvis_tilt/speed	/jointset/ground_pelvis/pelvis_tx/speed	/jointset/ground_pelvis/pelvis_ty/speed	/jointset/hip_l/hip_flexion_l/speed	/jointset/hip_l/hip_adduction_l/speed	/jointset/hip_l/hip_rotation_l/speed	/jointset/back/lumbar_extension/speed	/jointset/patellofemoral_l/patellar_flexion_l/speed	/jointset/knee_l/knee_flexion_l/speed	/jointset/knee_l/knee_adduction_l/speed	/jointset/knee_l/knee_rotation_l/speed	/jointset/ankle_l/ankle_angle_l/speed	/jointset/subtalar_l/subtalar_angle_l/speed	/forceset/tau_hip_flexion_l	/forceset/tau_hip_adduction_l	/forceset/tau_hip_rotation_l	/forceset/tau_knee_flexion_l	/forceset/tau_ankle_angle_l	/forceset/tau_subtalar_angle_l	/forceset/tau_lumbar_extension	lambda_cid13_p0	lambda_cid13_p1	lambda_cid13_p2	lambda_cid13_p3	lambda_cid13_p4	lambda_cid13_p5	lambda_cid14_p0	/jointset/ground_pelvis/pelvis_tilt/accel	/jointset/ground_pelvis/pelvis_tx/accel	/jointset/ground_pelvis/pelvis_ty/accel	/jointset/hip_l/hip_flexion_l/accel	/jointset/hip_l/hip_adduction_l/accel	/jointset/hip_l/hip_rotation_l/accel	/jointset/back/lumbar_extension/accel	/jointset/patellofemoral_l/patellar_flexion_l/accel	/jointset/knee_l/knee_flexion_l/accel	/jointset/knee_l/knee_adduction_l/accel	/jointset/knee_l/knee_rotation_l/accel	/jointset/ankle_l/ankle_angle_l/accel	/jointset/subtalar_l/subtalar_angle_l/accel	gamma_cid13_p0	gamma_cid13_p1	gamma_cid13_p2	gamma_cid13_p3	gamma_cid13_p4	gamma_cid13_p5	gamma_cid14_p0
1	-0.418874048768929	-0.04268890170968608	0.69345863506455	1.463475744944005	-0.2990583691603645	0.09902255935295542	-0.4363057741038197	1.083313893457795	1.083313893456824	-0.1745085432874511	0.1745200306669547	0.2359529748267636	-9.227056458088907e-07	-0.008603290466514197	0.0002493931926207444	-0.003169657206835934	0.01545526400389034	0.0004563243468388968	0.003279713254623296	-0.004021502619815311	0.009227475901020953	0.009227475901020559	-4.856384144470278e-05	5.520246362997753e-05	0.002979270154988989	0.001121898006382251	-0.3023740838313073	0.02973338037052892	-0.02395693313805278	-0.2851498769470087	0.03884410194850531	0.03934084041016929	0.2766051172300007	-30.98239137231308	-12.92050544386897	3.09619565080711	13.3022051903997	-698.9670482223897	-54.64171003422382	-4.583090949676319	1.085622298899083	0.09831006223236124	1.209215781326321	-4.431879110878236	-0.2360220421889213	-1.508175206729827	0.2790325574748502	-4.294928507110827	-4.294928507110182	-0.03327185971913864	0.004189527242000789	-1.227805780259644	-0.5154198073943785	1.695304267672539e-09	1.480584792430543e-09	-5.470598414838873e-09	-2.484425367818799e-09	1.233162035434654e-09	-1.224687600425361e-09	1.007649038536447e-09
1.01	-0.4189061936399958	-0.04268156976441726	0.6934872703773265	1.463409519045349	-0.2990649680717172	0.09897919620856432	-0.4363319415299381	1.083191881407305	1.083191881405917	-0.1745089294291102	0.1745204010742155	0.2359215559781715	-1.463862319670674e-05	0.002177802847405179	0.001211790582640744	0.00889250699456182	-0.02868925420110154	-0.001774373848862479	-0.01195017389451165	-0.001252219946909778	-0.03362351938668882	-0.03362351938669007	-2.773847677031588e-05	1.821946518076785e-05	-0.009271419886217876	-0.003864572972091856	-0.3019807905252598	0.02970756949493672	-0.02396710988357406	-0.2851606208900341	0.03897728268149436	0.03932557464640533	0.27624593470498	-30.92046638744064	-12.92580862101579	3.098286866613403	13.3074501785825	-698.6122853242406	-54.65361303606315	-4.588720064982627	1.074875585033777	0.09442384561631609	1.204084136951991	-4.404060068233243	-0.2163362948656543	-1.530073262223974	0.2698405189083443	-4.279229357997225	-4.279229357997698	0.01989758357295841	-0.007745035178908739	-1.224957454974061	-0.4901855471856614	-1.938999794817559e-09	-7.342583878796906e-09	1.880116966112644e-08	2.720276036849519e-10	-3.390620506592348e-09	-9.286539385128164e-11	-3.404548530149406e-09
1.02	-0.4188304230304539	-0.04266476999160248	0.6936364008115979	1.462902183585976	-0.2990938224823588	0.09878359863404211	-0.4363316232497864	1.082641550540262	1.082641550538506	-0.174509079747316	0.1745203810871234	0.2357673788613815	-7.820421135477672e-05	0.0129798056571304	0.0021429587018159	0.02092936709203335	-0.0727666481230603	-0.003994775508756444	-0.0271671727723901	0.001275638594388665	-0.07643628741024631	-0.07643628741024845	-1.399151612541442e-06	-2.287640489212867e-05	-0.02157238348433892	-0.00884803611503537	-0.3015874972196522	0.02968175861930876	-0.0239772866290628	-0.2851713648330617	0.03911046341453497	0.03931030888260811	0.2758867521795101	-30.8680130382263	-12.9294005267743	3.100044581425659	13.35196321162729	-698.3768433848398	-54.64313286076335	-4.614084884655083	1.089804198060238	0.0920642080634035	1.20415496054108	-4.418454254271621	-0.2339627350274286	-1.505597552478532	0.2307477311538427	-4.287283054280375	-4.28728305427974	-0.03216906762244049	0.003366952917248983	-1.237860491642463	-0.5148182402882419	-6.846746020442343e-09	-1.599631400364672e-08	4.190335885350498e-08	5.722892381431587e-09	-9.261984717172826e-09	1.26246355986846e-09	-7.54856233658438e-09
1.03	-0.4186468111465495	-0.04263860764343069	0.6939057575527975	1.461954469264909	-0.2991448181190626	0.09843594594492493	-0.4363056177426372	1.08166335812333	1.081663358122211	-0.1745089894103074	0.1745199580365549	0.2354902514187742	-0.0001914960553647262	0.02371727478230321	0.003105024112642478	0.03293616460653537	-0.116758654511464	-0.006201519139002592	-0.04235818738824931	0.004047510422369545	-0.1191882325259308	-0.1191882325259196	1.696261065798633e-05	-5.832768334851708e-05	-0.03383045199587071	-0.01380056465564856	-0.3021245655776953	0.0298114931903186	-0.02397589906195369	-0.2846837453662147	0.03899137294669238	0.03940712468660536	0.2764718136418408	-30.90831860545281	-12.97532201776382	3.119852388599013	13.17186842927841	-698.5824280029129	-54.65342421997464	-4.659332358082987	1.061923325375707	0.1006069581011942	1.198066600838184	-4.386940490770265	-0.2136134460749436	-1.52508747937443	0.3187140458984133	-4.267053359681515	-4.267053359679956	0.01845936981635687	-0.006503840392511587	-1.21638236180792	-0.4840086916402099	-1.176748655385422e-08	-2.464831516373758e-08	6.499361356747956e-08	1.120125115720112e-08	-1.514607935294263e-08	2.620073194681527e-09	-1.168983957401679e-08
